# xmcd
#
# Track frame offsets:
#	150
#	23476
#	67469
#	82415
#	121433
#	138914
#	154743
#	172565
#	203696
#	227095
#	244591
#	280291
#	305541
#
# Disc length: 4490 seconds
#
# Revision: 1
# Processed by: cddbd v1.5.2PL0 Copyright (c) Steve Scherf et al.
# Submitted via: audiograbber 1.83.01
#
DISCID=af11880d
DTITLE=Various Artist - FTG Presents The Vaults Volume 6 [CD1]
DYEAR=2017
DGENRE=Dance
TTITLE0=Earth, Wind and Fire - Get Away (12" Version)
TTITLE1=The O'Jays - I Love Music (A Tom Moulton Mix)
TTITLE2=Heatwave - Lay It On Me (Remastered)
TTITLE3=The Jacksone - Shake Your Body (Down To The Ground) (12" John Luongo Di
TTITLE3=sco Mix)
TTITLE4=George Duke - Brazillian Love Affair (Single Version)
TTITLE5=Earth, Wind and Fire - Can't Let Go (Remastered)
TTITLE6=Harvey Mason - Groovin You (US 7" Version)
TTITLE7=Grey and Hanks - Dancin (Remastered)
TTITLE8=Heatwave - Posin Till Closin (UK 12" Version)
TTITLE9=Evelyn Champaign King - I'm In Love (Single Version)
TTITLE10=The Quick - Zulu (12" Version)
TTITLE11=Cherl Lynn - Preppie (12" Version)
TTITLE12=The Jones Girls - On Target (12" Version)
EXTD=
EXTT0=
EXTT1=
EXTT2=
EXTT3=
EXTT4=
EXTT5=
EXTT6=
EXTT7=
EXTT8=
EXTT9=
EXTT10=
EXTT11=
EXTT12=
PLAYORDER=
